<svg xmlns="http://www.w3.org/2000/svg" version="1.1" xmlns:xlink="http://www.w3.org/1999/xlink" xmlns:svgjs="http://svgjs.dev/svgjs" width="1000" height="1000" viewBox="0 0 1000 1000"><g transform="matrix(1,0,0,1,-0.14221556886212738,-0.14221556886229791)"><svg viewBox="0 0 334 334" data-background-color="#ffffff" preserveAspectRatio="xMidYMid meet" height="1000" width="1000" xmlns="http://www.w3.org/2000/svg" xmlns:xlink="http://www.w3.org/1999/xlink"><g id="tight-bounds" transform="matrix(1,0,0,1,0.04749999999998522,0.04750000000001364)"><svg viewBox="0 0 333.90454557049503 333.90454557049503" height="333.90454557049503" width="333.90454557049503"><g><svg></svg></g><g><svg viewBox="0 0 333.90454557049503 333.90454557049503" height="333.90454557049503" width="333.90454557049503"><g><path d="M0 166.952c0-92.205 74.747-166.952 166.952-166.952 92.205 0 166.952 74.747 166.953 166.952 0 92.205-74.747 166.952-166.953 166.953-92.205 0-166.952-74.747-166.952-166.953zM166.952 325.235c87.417 0 158.283-70.866 158.283-158.283 0-87.417-70.866-158.283-158.283-158.282-87.417 0-158.283 70.866-158.282 158.282 0 87.417 70.866 158.283 158.282 158.283z" data-fill-palette-color="tertiary" fill="#0063db" stroke="transparent"></path><ellipse rx="160.27418187383762" ry="160.27418187383762" cx="166.95227278524752" cy="166.95227278524752" fill="#0063db" stroke="transparent" stroke-width="0" fill-opacity="1" data-fill-palette-color="tertiary"></ellipse></g><g transform="matrix(1,0,0,1,103.49954969293805,71.17305217166896)"><svg viewBox="0 0 126.90544618461892 191.55844122715712" height="191.55844122715712" width="126.90544618461892"><g><svg viewBox="0 0 126.90544618461892 191.55844122715712" height="191.55844122715712" width="126.90544618461892"><g><svg viewBox="0 0 213.1584412271571 321.75371478134184" height="191.55844122715712" width="126.90544618461892"><g transform="matrix(1,0,0,1,0,160.27595692581934)"><svg viewBox="0 0 213.1584412271571 161.4777578555225" height="161.4777578555225" width="213.1584412271571"><g id="textblocktransform"><svg viewBox="0 0 213.1584412271571 161.4777578555225" height="161.4777578555225" width="213.1584412271571" id="textblock"><g><svg viewBox="0 0 213.1584412271571 161.4777578555225" height="161.4777578555225" width="213.1584412271571"><g transform="matrix(1,0,0,1,0,0)"><svg width="213.1584412271571" viewBox="0.9 -39.35 54.65 41.4" height="161.4777578555225" data-palette-color="#ffffff"><path d="M49.65-0.4Q47.4 2.05 44.48 2.05 41.55 2.05 38.85-0.78 36.15-3.6 34.35-8.85 32.55-14.1 31.85-18.25L31.85-18.25Q30.25-15.05 29.35-13.38 28.45-11.7 26.7-9.1 24.95-6.5 23.05-4.4L23.05-4.4Q17.15 1.95 9.7 1.95L9.7 1.95Q2.95 1.95 1.3-1.7L1.3-1.7Q0.9-2.55 0.9-3.68 0.9-4.8 2.05-6.1L2.05-6.1Q3.9-8.15 7.15-8.15L7.15-8.15Q9.35-8.15 11.8-7.3L11.8-7.3Q12.45-7.05 12.3-6.75 12.15-6.45 11-6.9 9.85-7.35 8.22-7.35 6.6-7.35 5.43-6.1 4.25-4.85 4.25-3.5L4.25-3.5Q4.25-2.9 4.5-2.2L4.5-2.2Q5.5 0.4 9.2 0.4L9.2 0.4Q13.3 0.4 16.45-2.05L16.45-2.05Q18.25-3.45 19.7-4.9 21.15-6.35 22.8-8.8L22.8-8.8Q25.4-12.55 27.23-15.78 29.05-19 31.18-22.83 33.3-26.65 34.3-28.4L34.3-28.4Q37.5-33.85 40.15-36.75L40.15-36.75Q37.35-37 34.55-37L34.55-37Q28.15-37 21.83-35.68 15.5-34.35 11.8-31.3L11.8-31.3Q7.15-27.45 7.15-23.1L7.15-23.1Q7.15-21 8.65-19.38 10.15-17.75 12.7-17.75L12.7-17.75Q15.8-17.75 17.85-19.95 19.9-22.15 20-23.45L20-23.45Q20.05-24.1 20.3-24.1L20.3-24.1Q20.7-24.1 20.65-23.35L20.65-23.35Q20.3-20.95 18.7-19.3L18.7-19.3Q15.9-16.4 12-16.4L12-16.4Q9.05-16.4 6.88-18.4 4.7-20.4 4.7-23.75L4.7-23.75Q4.7-28.7 9.53-32.63 14.35-36.55 22.2-37.7L22.2-37.7Q27.8-38.5 32.52-38.5 37.25-38.5 41.25-37.95L41.25-37.95Q42.55-39.35 43.05-39.35L43.05-39.35Q43.35-39.35 43.35-38.88 43.35-38.4 43.1-37.7L43.1-37.7Q46.8-37.1 48.05-36.75L48.05-36.75Q55.55-34.55 55.55-29.95L55.55-29.95Q55.55-27 51.9-24.1L51.9-24.1Q47.3-20.55 39.6-19.3L39.6-19.3Q37.4-18.95 35-18.85L35-18.85Q36.6-10 40.55-3.95L40.55-3.95Q41.9-1.9 43.03-0.98 44.15-0.05 45.45-0.05L45.45-0.05Q47.25-0.05 49.28-2.05 51.3-4.05 53.95-9.35L53.95-9.35Q54.35-10.1 54.75-10.1L54.75-10.1Q55.15-10.1 54.8-9.35L54.8-9.35Q51.9-2.85 49.65-0.4ZM51.95-30.7L51.95-30.7Q51.95-31.1 51.85-31.5L51.85-31.5Q51.3-34.3 47.4-35.5L47.4-35.5Q46.2-35.85 42.5-36.45L42.5-36.45Q41.6-34.9 38.1-29.2 34.6-23.5 32.9-20.15L32.9-20.15Q34-20.35 36.13-20.53 38.25-20.7 39.2-20.8L39.2-20.8Q44.9-21.5 48.9-25.25L48.9-25.25Q51.95-28.05 51.95-30.7Z" opacity="1" transform="matrix(1,0,0,1,0,0)" fill="#ffffff" class="undefined-text-0" data-fill-palette-color="quaternary" id="text-0"></path></svg></g></svg></g></svg></g></svg></g><g transform="matrix(1,0,0,1,40.713262274387006,0)"><svg viewBox="0 0 131.7319166783831 122.15493376231902" height="122.15493376231902" width="131.7319166783831"><g><svg xmlns="http://www.w3.org/2000/svg" xmlns:xlink="http://www.w3.org/1999/xlink" version="1.1" x="0" y="0" viewBox="6.114772727272729 8.410201562790554 88.20214281181794 81.78979843720944" style="enable-background:new 0 0 100 100;" xml:space="preserve" height="122.15493376231902" width="131.7319166783831" class="icon-icon-0" data-fill-palette-color="quaternary" id="icon-0"><path d="M18.3 90.2c-3.8 0-7.4-1.7-9.7-4.9-2.7-3.5-3.2-8.1-1.5-12.2l24.4-57.3c1.7-4 5.3-6.7 9.6-7.3C45.4 8 49.6 9.6 52.3 13l39.3 49.1c2.8 3.5 3.5 8.1 1.8 12.2-1.7 4.2-5.3 7-9.8 7.6l-63.7 8.2C19.4 90.2 18.8 90.2 18.3 90.2zM42.8 12.5c-0.4 0-0.8 0-1.1 0.1-2.9 0.4-5.3 2.2-6.5 4.9L10.8 74.7c-1.2 2.8-0.8 5.8 1 8.2 1.8 2.4 4.7 3.6 7.6 3.2l63.7-8.2c3-0.4 5.5-2.3 6.6-5.1 1.1-2.8 0.7-5.9-1.2-8.2L49.2 15.5C47.6 13.6 45.2 12.5 42.8 12.5z" fill="#ffffff" data-fill-palette-color="quaternary"></path></svg></g></svg></g><g></g></svg></g></svg></g></svg></g></svg></g><defs></defs></svg><rect width="333.90454557049503" height="333.90454557049503" fill="none" stroke="none" visibility="hidden"></rect></g></svg></g></svg>